{
  "accessors": [
    {
      "bufferView": 2,
      "componentType": 5126,
      "count": 1249,
      "max": [
        0.34675291180610657,
        0.34675291180610657,
        0.6098543405532837
      ],
      "min": [
        -0.34675291180610657,
        -0.34675294160842896,
        -4.151710163569078e-05
      ],
      "type": "VEC3"
    },
    {
      "bufferView": 2,
      "byteOffset": 14988,
      "componentType": 5126,
      "count": 1249,
      "max": [
        0.9998673796653748,
        0.99986732006073,
        0.9992296695709229
      ],
      "min": [
        -0.9999833703041077,
        -0.9998673796653748,
        -0.9999959468841553
      ],
      "type": "VEC3"
    },
    {
      "bufferView": 3,
      "componentType": 5126,
      "count": 1249,
      "max": [
        0.999988317489624,
        0.9731440544128418,
        0.9992799758911133,
        1.0
      ],
      "min": [
        -0.9999985098838806,
        -0.9733268022537231,
        -0.9999708533287048,
        1.0
      ],
      "type": "VEC4"
    },
    {
      "bufferView": 1,
      "componentType": 5126,
      "count": 1249,
      "max": [
        0.9039030075073242,
        0.7594273090362549
      ],
      "min": [
        0.003000000026077032,
        0.003000000026077032
      ],
      "type": "VEC2"
    },
    {
      "bufferView": 0,
      "componentType": 5125,
      "count": 6426,
      "type": "SCALAR"
    },
    {
      "bufferView": 2,
      "byteOffset": 29976,
      "componentType": 5126,
      "count": 1723,
      "max": [
        0.4254271388053894,
        0.34675291180610657,
        1.2918237447738647
      ],
      "min": [
        -0.34675291180610657,
        -0.34675294160842896,
        -4.151710163569078e-05
      ],
      "type": "VEC3"
    },
    {
      "bufferView": 2,
      "byteOffset": 50652,
      "componentType": 5126,
      "count": 1723,
      "max": [
        0.9998673796653748,
        0.99986732006073,
        0.9992296695709229
      ],
      "min": [
        -0.9999833703041077,
        -0.9998673796653748,
        -0.9999959468841553
      ],
      "type": "VEC3"
    },
    {
      "bufferView": 3,
      "byteOffset": 19984,
      "componentType": 5126,
      "count": 1723,
      "max": [
        0.999988317489624,
        0.9731440544128418,
        0.9992799758911133,
        1.0
      ],
      "min": [
        -0.9999985098838806,
        -0.9733268022537231,
        -0.9999708533287048,
        1.0
      ],
      "type": "VEC4"
    },
    {
      "bufferView": 1,
      "byteOffset": 9992,
      "componentType": 5126,
      "count": 1723,
      "max": [
        0.996999979019165,
        0.9342595934867859
      ],
      "min": [
        0.003000000026077032,
        0.003000000026077032
      ],
      "type": "VEC2"
    },
    {
      "bufferView": 0,
      "byteOffset": 25704,
      "componentType": 5125,
      "count": 8166,
      "type": "SCALAR"
    }
  ],
  "asset": {
    "extras": {
      "author": "soidev (https://sketchfab.com/soidev)",
      "license": "CC-BY-4.0 (http://creativecommons.org/licenses/by/4.0/)",
      "source": "https://sketchfab.com/3d-models/dining-chair-05e815d0f2f64647b646e9b71f8ec9ed",
      "title": "Dining Chair"
    },
    "generator": "Sketchfab-12.63.0",
    "version": "2.0"
  },
  "bufferViews": [
    {
      "buffer": 0,
      "byteLength": 58368,
      "name": "floatBufferViews",
      "target": 34963
    },
    {
      "buffer": 0,
      "byteLength": 23776,
      "byteOffset": 58368,
      "byteStride": 8,
      "name": "floatBufferViews",
      "target": 34962
    },
    {
      "buffer": 0,
      "byteLength": 71328,
      "byteOffset": 82144,
      "byteStride": 12,
      "name": "floatBufferViews",
      "target": 34962
    },
    {
      "buffer": 0,
      "byteLength": 47552,
      "byteOffset": 153472,
      "byteStride": 16,
      "name": "floatBufferViews",
      "target": 34962
    }
  ],
  "buffers": [
    {
      "byteLength": 201024,
      "uri": "scene.bin"
    }
  ],
  "images": [
    {
      "uri": "textures/DiningChair_baseColor.png"
    },
    {
      "uri": "textures/DiningChair_metallicRoughness.png"
    },
    {
      "uri": "textures/DiningChair_normal.png"
    }
  ],
  "materials": [
    {
      "doubleSided": true,
      "name": "DiningChair",
      "normalTexture": {
        "index": 2
      },
      "occlusionTexture": {
        "index": 1
      },
      "pbrMetallicRoughness": {
        "baseColorTexture": {
          "index": 0
        },
        "metallicRoughnessTexture": {
          "index": 1
        }
      }
    }
  ],
  "meshes": [
    {
      "name": "DiningxStool_DiningChair_0",
      "primitives": [
        {
          "attributes": {
            "NORMAL": 1,
            "POSITION": 0,
            "TANGENT": 2,
            "TEXCOORD_0": 3
          },
          "indices": 4,
          "material": 0,
          "mode": 4
        }
      ]
    },
    {
      "name": "DiningxChair_DiningChair_0",
      "primitives": [
        {
          "attributes": {
            "NORMAL": 6,
            "POSITION": 5,
            "TANGENT": 7,
            "TEXCOORD_0": 8
          },
          "indices": 9,
          "material": 0,
          "mode": 4
        }
      ]
    }
  ],
  "nodes": [
    {
      "children": [
        1
      ],
      "matrix": [
        0.01028910931199789,
        0.0,
        0.0,
        0.0,
        0.0,
        2.2846412122130323e-18,
        -0.01028910931199789,
        0.0,
        0.0,
        0.01028910931199789,
        2.2846412122130323e-18,
        0.0,
        0.0,
        0.0,
        0.0,
        1.0
      ],
      "name": "Sketchfab_model"
    },
    {
      "children": [
        2
      ],
      "matrix": [
        1.0,
        0.0,
        0.0,
        0.0,
        0.0,
        0.0,
        1.0,
        0.0,
        0.0,
        -1.0,
        0.0,
        0.0,
        0.0,
        0.0,
        0.0,
        1.0
      ],
      "name": "DiningChair.fbx"
    },
    {
      "children": [
        3,
        5
      ],
      "name": "RootNode"
    },
    {
      "children": [
        4
      ],
      "matrix": [
        97.94863329443214,
        3.8912126992807217e-07,
        -20.151060412615006,
        0.0,
        -20.15106041261409,
        -2.829305116858194e-05,
        -97.94863329442825,
        0.0,
        -6.0824887987420695e-06,
        99.999999999996,
        -2.7634244870178293e-05,
        0.0,
        -52.925758361816406,
        0.0,
        -69.01519012451172,
        1.0
      ],
      "name": "DiningxStool"
    },
    {
      "mesh": 0,
      "name": "DiningxStool_DiningChair_0"
    },
    {
      "children": [
        6
      ],
      "matrix": [
        100.0,
        0.0,
        0.0,
        0.0,
        0.0,
        -1.629206793918314e-05,
        -99.99999999999868,
        0.0,
        0.0,
        99.99999999999868,
        -1.629206793918314e-05,
        0.0,
        0.0,
        0.0,
        0.0,
        1.0
      ],
      "name": "DiningxChair"
    },
    {
      "mesh": 1,
      "name": "DiningxChair_DiningChair_0"
    }
  ],
  "samplers": [
    {
      "magFilter": 9729,
      "minFilter": 9987,
      "wrapS": 10497,
      "wrapT": 10497
    }
  ],
  "scene": 0,
  "scenes": [
    {
      "name": "Sketchfab_Scene",
      "nodes": [
        0
      ]
    }
  ],
  "textures": [
    {
      "sampler": 0,
      "source": 0
    },
    {
      "sampler": 0,
      "source": 1
    },
    {
      "sampler": 0,
      "source": 2
    }
  ]
}
